<?xml version="1.0" standalone="no"?>
<!DOCTYPE svg PUBLIC "-//W3C//DTD SVG 20010904//EN"
 "http://www.w3.org/TR/2001/REC-SVG-20010904/DTD/svg10.dtd">
<svg version="1.0" xmlns="http://www.w3.org/2000/svg"
 width="580.000000pt" height="580.000000pt" viewBox="0 0 580.000000 580.000000"
 preserveAspectRatio="xMidYMid meet">
<metadata>
Created by potrace 1.14, written by Peter Selinger 2001-2017
</metadata>
<g transform="translate(0.000000,580.000000) scale(0.100000,-0.100000)"
fill="#000000" stroke="none">
<path d="M4140 4015 c-240 -46 -428 -183 -579 -422 -76 -121 -110 -263 -111
-457 0 -77 4 -153 9 -170 64 -211 87 -263 151 -346 52 -67 199 -210 215 -210
7 0 19 -8 28 -17 28 -31 143 -84 239 -111 50 -13 102 -17 253 -17 201 1 251
10 375 67 150 69 335 245 396 378 4 8 13 22 20 30 27 33 74 202 83 303 26 269
-43 495 -212 700 -56 67 -201 177 -265 201 -21 8 -61 23 -91 35 -127 48 -359
65 -511 36z m321 -399 c105 -24 195 -95 258 -201 43 -71 61 -151 62 -272 1
-167 -38 -281 -131 -385 -99 -111 -267 -154 -445 -113 -76 18 -91 25 -160 78
-92 72 -142 164 -159 299 -24 183 3 316 89 444 28 42 119 116 163 132 90 33
228 41 323 18z"/>
<path d="M580 4002 c-7 -3 -10 -299 -10 -868 l0 -864 208 2 207 3 5 305 5 305
190 6 c267 7 338 26 479 125 143 99 216 248 216 436 0 111 -14 176 -57 263
-81 164 -235 260 -450 281 -62 6 -776 11 -793 6z m780 -372 c62 -34 89 -91 90
-186 0 -81 -15 -127 -57 -166 -49 -46 -111 -59 -263 -56 l-135 3 -3 219 -2
218 162 -4 c151 -3 166 -5 208 -28z"/>
<path d="M2029 3999 c-5 -3 -8 -361 -6 -865 l2 -859 205 0 205 0 2 325 1 325
49 3 49 3 29 -53 c15 -29 49 -91 75 -138 26 -47 73 -132 105 -190 32 -58 80
-144 107 -192 l50 -88 229 0 c126 0 229 3 229 8 0 4 -13 30 -28 57 -36 64
-114 200 -163 288 -104 182 -124 216 -150 262 -16 28 -29 55 -29 61 0 6 15 17
33 24 82 30 125 58 183 116 112 112 160 242 151 407 -7 103 -16 144 -51 215
-82 165 -242 267 -455 288 -75 8 -811 10 -822 3z m805 -368 c40 -20 52 -33 72
-75 28 -61 31 -134 8 -203 -20 -58 -37 -79 -89 -106 -34 -18 -62 -21 -203 -25
-109 -3 -167 -1 -174 6 -8 8 -11 82 -10 219 0 114 1 210 1 212 1 2 79 2 174
-1 156 -3 176 -6 221 -27z"/>
</g>
</svg>
